<svg xmlns="http://www.w3.org/2000/svg" fill="none" viewBox="0 0 32 32" height="1024" width="1024">
<g clip-path="url(#clip0_31_84)">
<path fill="url(#paint0_radial_31_84)" d="M15.9989 29.9978C25.3333 29.9978 29.9978 23.7303 29.9978 15.9989C29.9978 8.26751 25.3333 2 15.9989 2C6.66443 2 2 8.26751 2 15.9989C2 23.7303 6.66443 29.9978 15.9989 29.9978Z"></path>
<path fill="url(#paint1_radial_31_84)" d="M15.9989 29.9978C25.3333 29.9978 29.9978 23.7303 29.9978 15.9989C29.9978 8.26751 25.3333 2 15.9989 2C6.66443 2 2 8.26751 2 15.9989C2 23.7303 6.66443 29.9978 15.9989 29.9978Z"></path>
<path fill="url(#paint2_radial_31_84)" d="M15.9989 29.9978C25.3333 29.9978 29.9978 23.7303 29.9978 15.9989C29.9978 8.26751 25.3333 2 15.9989 2C6.66443 2 2 8.26751 2 15.9989C2 23.7303 6.66443 29.9978 15.9989 29.9978Z"></path>
<path fill-opacity="0.6" fill="url(#paint3_radial_31_84)" d="M15.9989 29.9978C25.3333 29.9978 29.9978 23.7303 29.9978 15.9989C29.9978 8.26751 25.3333 2 15.9989 2C6.66443 2 2 8.26751 2 15.9989C2 23.7303 6.66443 29.9978 15.9989 29.9978Z"></path>
<path fill="url(#paint4_radial_31_84)" d="M15.9989 29.9978C25.3333 29.9978 29.9978 23.7303 29.9978 15.9989C29.9978 8.26751 25.3333 2 15.9989 2C6.66443 2 2 8.26751 2 15.9989C2 23.7303 6.66443 29.9978 15.9989 29.9978Z"></path>
<path fill="url(#paint5_radial_31_84)" d="M15.9989 29.9978C25.3333 29.9978 29.9978 23.7303 29.9978 15.9989C29.9978 8.26751 25.3333 2 15.9989 2C6.66443 2 2 8.26751 2 15.9989C2 23.7303 6.66443 29.9978 15.9989 29.9978Z"></path>
<path fill="url(#paint6_radial_31_84)" d="M15.9989 29.9978C25.3333 29.9978 29.9978 23.7303 29.9978 15.9989C29.9978 8.26751 25.3333 2 15.9989 2C6.66443 2 2 8.26751 2 15.9989C2 23.7303 6.66443 29.9978 15.9989 29.9978Z"></path>
<path fill="url(#paint7_radial_31_84)" d="M15.9989 29.9978C25.3333 29.9978 29.9978 23.7303 29.9978 15.9989C29.9978 8.26751 25.3333 2 15.9989 2C6.66443 2 2 8.26751 2 15.9989C2 23.7303 6.66443 29.9978 15.9989 29.9978Z"></path>
<g filter="url(#filter0_f_31_84)" opacity="0.5">
<path stroke-linecap="round" stroke-width="2" stroke="#9A4609" d="M7.5 13.5C7.5 13.5 7.75 11.5 10 11.5C12.25 11.5 12.5 13.5 12.5 13.5"></path>
</g>
<g filter="url(#filter1_f_31_84)" opacity="0.5">
<path stroke-linecap="round" stroke-width="2" stroke="#9A4609" d="M18.5 13.5C18.5 13.5 19 11.5 21 11.5C23 11.5 23.5 13.5 23.5 13.5"></path>
</g>
<path stroke-linejoin="round" stroke-linecap="round" stroke-width="2" stroke="#43273B" d="M8 13C8 13 8.25 11 10.5 11C12.75 11 13 13 13 13"></path>
<g filter="url(#filter2_f_31_84)" opacity="0.26">
<path stroke-linejoin="round" stroke-linecap="round" stroke-width="0.75" stroke="white" d="M8.25 12.75C8.25 12.75 8.5 10.75 10.75 10.75C13 10.75 13.25 12.75 13.25 12.75"></path>
</g>
<path stroke-linejoin="round" stroke-linecap="round" stroke-width="2" stroke="#43273B" d="M19 13C19 13 19.5 11 21.5 11C23.5 11 24 13 24 13"></path>
<g filter="url(#filter3_f_31_84)" opacity="0.26">
<path stroke-linejoin="round" stroke-linecap="round" stroke-width="0.75" stroke="white" d="M19.25 12.75C19.25 12.75 19.5 10.75 21.75 10.75C24 10.75 24.25 12.75 24.25 12.75"></path>
</g>
<path stroke-linejoin="round" stroke-linecap="round" stroke="url(#paint8_linear_31_84)" d="M6.5 10.5C6.83333 9.5 8.1 7.5 10.5 7.5"></path>
<path stroke-linejoin="round" stroke-linecap="round" stroke="url(#paint9_linear_31_84)" d="M25.5 10.5C25.1667 9.5 23.9 7.5 21.5 7.5"></path>
<path fill="url(#paint10_radial_31_84)" d="M11.62 21.5H18.1L19.72 24.4028V31.1074L11.6199 29L11.62 21.5Z"></path>
<path fill="url(#paint11_radial_31_84)" d="M16 25C9 25 9 18 9 18H23C23 18 23 25 16 25Z"></path>
<path fill="url(#paint12_linear_31_84)" d="M10.1505 22C11.1004 23.5684 12.8344 25 16 25C19.1657 25 20.8997 23.5684 21.8496 22H10.1505Z" clip-rule="evenodd" fill-rule="evenodd"></path>
<path fill="url(#paint13_radial_31_84)" d="M10.1505 22C11.1004 23.5684 12.8344 25 16 25C19.1657 25 20.8997 23.5684 21.8496 22H10.1505Z" clip-rule="evenodd" fill-rule="evenodd"></path>
<path fill="url(#paint14_radial_31_84)" d="M16 23.5V25.25C16 25.6642 16.3358 26 16.75 26H16.8333C17.2015 26 17.5 26.2985 17.5 26.6667V26.75C17.5 27.4404 18.0596 28 18.75 28C19.4404 28 20 27.4404 20 26.75V23.9372C20.8204 23.4017 21.4165 22.7151 21.8496 22H20H19H17.5C16.6716 22 16 22.6716 16 23.5Z" clip-rule="evenodd" fill-rule="evenodd"></path>
</g>
<defs>
<filter color-interpolation-filters="sRGB" filterUnits="userSpaceOnUse" height="7.00012" width="10.0002" y="9" x="4.99988" id="filter0_f_31_84">
<feFlood result="BackgroundImageFix" flood-opacity="0"></feFlood>
<feBlend result="shape" in2="BackgroundImageFix" in="SourceGraphic" mode="normal"></feBlend>
<feGaussianBlur result="effect1_foregroundBlur_31_84" stdDeviation="0.75"></feGaussianBlur>
</filter>
<filter color-interpolation-filters="sRGB" filterUnits="userSpaceOnUse" height="7.00024" width="10.0005" y="9" x="15.9998" id="filter1_f_31_84">
<feFlood result="BackgroundImageFix" flood-opacity="0"></feFlood>
<feBlend result="shape" in2="BackgroundImageFix" in="SourceGraphic" mode="normal"></feBlend>
<feGaussianBlur result="effect1_foregroundBlur_31_84" stdDeviation="0.75"></feGaussianBlur>
</filter>
<filter color-interpolation-filters="sRGB" filterUnits="userSpaceOnUse" height="5.75006" width="8.75" y="8.875" x="6.375" id="filter2_f_31_84">
<feFlood result="BackgroundImageFix" flood-opacity="0"></feFlood>
<feBlend result="shape" in2="BackgroundImageFix" in="SourceGraphic" mode="normal"></feBlend>
<feGaussianBlur result="effect1_foregroundBlur_31_84" stdDeviation="0.75"></feGaussianBlur>
</filter>
<filter color-interpolation-filters="sRGB" filterUnits="userSpaceOnUse" height="5.75006" width="8.75" y="8.875" x="17.375" id="filter3_f_31_84">
<feFlood result="BackgroundImageFix" flood-opacity="0"></feFlood>
<feBlend result="shape" in2="BackgroundImageFix" in="SourceGraphic" mode="normal"></feBlend>
<feGaussianBlur result="effect1_foregroundBlur_31_84" stdDeviation="0.75"></feGaussianBlur>
</filter>
<radialGradient gradientTransform="translate(25.5 9) rotate(132.839) scale(37.5033)" gradientUnits="userSpaceOnUse" r="1" cy="0" cx="0" id="paint0_radial_31_84">
<stop stop-color="#FFF478"></stop>
<stop stop-color="#FFB02E" offset="0.474827"></stop>
<stop stop-color="#F70A8D" offset="1"></stop>
</radialGradient>
<radialGradient gradientTransform="translate(25.5 9) rotate(131.878) scale(38.9487)" gradientUnits="userSpaceOnUse" r="1" cy="0" cx="0" id="paint1_radial_31_84">
<stop stop-color="#FFF478"></stop>
<stop stop-color="#FFB02E" offset="0.474827"></stop>
<stop stop-color="#F70A8D" offset="1"></stop>
</radialGradient>
<radialGradient gradientTransform="translate(16 12.5) rotate(101.31) scale(17.8466 22.8581)" gradientUnits="userSpaceOnUse" r="1" cy="0" cx="0" id="paint2_radial_31_84">
<stop stop-opacity="0" stop-color="#F59639" offset="0.787821"></stop>
<stop stop-color="#FF7DCE" offset="0.972509"></stop>
</radialGradient>
<radialGradient gradientTransform="translate(18 14) rotate(135) scale(41.0122)" gradientUnits="userSpaceOnUse" r="1" cy="0" cx="0" id="paint3_radial_31_84">
<stop stop-opacity="0" offset="0.314853"></stop>
<stop offset="1"></stop>
</radialGradient>
<radialGradient gradientTransform="translate(16 17) rotate(77.692) scale(28.1469)" gradientUnits="userSpaceOnUse" r="1" cy="0" cx="0" id="paint4_radial_31_84">
<stop stop-opacity="0" stop-color="#7D6133" offset="0.507903"></stop>
<stop stop-color="#715B32" offset="1"></stop>
</radialGradient>
<radialGradient gradientTransform="translate(16.5 16.5) rotate(55.7131) scale(13.3135 9.65032)" gradientUnits="userSpaceOnUse" r="1" cy="0" cx="0" id="paint5_radial_31_84">
<stop stop-color="#FFB849"></stop>
<stop stop-opacity="0" stop-color="#FFB847" offset="1"></stop>
</radialGradient>
<radialGradient gradientTransform="translate(20.5 18) rotate(9.86581) scale(11.6726)" gradientUnits="userSpaceOnUse" r="1" cy="0" cx="0" id="paint6_radial_31_84">
<stop stop-color="#FFA64B"></stop>
<stop stop-opacity="0" stop-color="#FFAE46" offset="0.900412"></stop>
</radialGradient>
<radialGradient gradientTransform="translate(17.5 15) rotate(43.9708) scale(59.0529)" gradientUnits="userSpaceOnUse" r="1" cy="0" cx="0" id="paint7_radial_31_84">
<stop stop-opacity="0" offset="0.185425"></stop>
<stop stop-opacity="0.4" offset="1"></stop>
</radialGradient>
<linearGradient gradientUnits="userSpaceOnUse" y2="9.6" x2="6.83333" y1="11.4" x1="6.83333" id="paint8_linear_31_84">
<stop stop-color="#524049" offset="0.0299084"></stop>
<stop stop-color="#4A2C42" offset="1"></stop>
</linearGradient>
<linearGradient gradientUnits="userSpaceOnUse" y2="9.6" x2="25.1667" y1="11.4" x1="25.1667" id="paint9_linear_31_84">
<stop stop-color="#524049" offset="0.0299084"></stop>
<stop stop-color="#4A2C42" offset="1"></stop>
</linearGradient>
<radialGradient gradientTransform="translate(19.72 21.5) rotate(128.191) scale(7.63403 5.15729)" gradientUnits="userSpaceOnUse" r="1" cy="0" cx="0" id="paint10_radial_31_84">
<stop stop-color="#C20AA5"></stop>
<stop stop-opacity="0" stop-color="#C20A78" offset="1"></stop>
</radialGradient>
<radialGradient gradientTransform="translate(16 25.5) rotate(-90) scale(7.5 15)" gradientUnits="userSpaceOnUse" r="1" cy="0" cx="0" id="paint11_radial_31_84">
<stop stop-color="#F70A8D"></stop>
<stop stop-color="#89029C" offset="1"></stop>
</radialGradient>
<linearGradient gradientUnits="userSpaceOnUse" y2="25" x2="16" y1="22" x1="16" id="paint12_linear_31_84">
<stop stop-color="#2962F3"></stop>
<stop stop-color="#3E7AFF" offset="0.160122"></stop>
<stop stop-color="#4588FF" offset="0.253876"></stop>
<stop stop-color="#4170FF" offset="0.535137"></stop>
<stop stop-color="#3E69FF" offset="1"></stop>
</linearGradient>
<radialGradient gradientTransform="translate(16 23.5) rotate(90) scale(3 1.74841)" gradientUnits="userSpaceOnUse" r="1" cy="0" cx="0" id="paint13_radial_31_84">
<stop stop-color="#323FFF"></stop>
<stop stop-opacity="0" stop-color="#323FFF" offset="1"></stop>
</radialGradient>
<radialGradient gradientTransform="translate(23.5 26) rotate(-172.405) scale(7.56637 7.8168)" gradientUnits="userSpaceOnUse" r="1" cy="0" cx="0" id="paint14_radial_31_84">
<stop stop-color="#325CFF" offset="0.408311"></stop>
<stop stop-color="#4889FF" offset="0.574014"></stop>
<stop stop-color="#3C6BF7" offset="0.739718"></stop>
<stop stop-color="#3F72FF" offset="0.899655"></stop>
<stop stop-color="#3156FE" offset="1"></stop>
</radialGradient>
<clipPath id="clip0_31_84">
<rect fill="white" height="32" width="32"></rect>
</clipPath>
</defs>
</svg>
