<?xml version="1.0" standalone="no"?><!DOCTYPE svg PUBLIC "-//W3C//DTD SVG 1.1//EN" "http://www.w3.org/Graphics/SVG/1.1/DTD/svg11.dtd"><svg height="32" node-id="1" sillyvg="true" template-height="32" template-width="32" version="1.1" viewBox="0 0 32 32" width="32" xmlns="http://www.w3.org/2000/svg" xmlns:xlink="http://www.w3.org/1999/xlink"><defs node-id="93"><linearGradient gradientUnits="objectBoundingBox" id="paint11_linear_31_62" node-id="73" spreadMethod="pad" x1="16.5" x2="15.5" y1="7" y2="14"><stop offset="0" stop-color="#553b3e"></stop><stop offset="1" stop-color="#3d2432"></stop></linearGradient><linearGradient gradientUnits="objectBoundingBox" id="paint14_linear_31_62" node-id="83" spreadMethod="pad" x1="12.5" x2="14" y1="24" y2="25.5"><stop offset="0" stop-color="#fa9428"></stop><stop offset="1" stop-color="#fa9428" stop-opacity="0"></stop></linearGradient><linearGradient gradientUnits="objectBoundingBox" id="paint15_linear_31_62" node-id="86" spreadMethod="pad" x1="11.5" x2="13" y1="28.5" y2="30"><stop offset="0" stop-color="#fa9428"></stop><stop offset="1" stop-color="#fa9428" stop-opacity="0"></stop></linearGradient><linearGradient gradientUnits="objectBoundingBox" id="paint16_linear_31_62" node-id="89" spreadMethod="pad" x1="11.5" x2="13" y1="26.5" y2="28"><stop offset="0" stop-color="#fa9428"></stop><stop offset="1" stop-color="#fa9428" stop-opacity="0"></stop></linearGradient><radialGradient cx="0" cy="0" fx="0" fy="0" gradientUnits="objectBoundingBox" id="paint0_radial_31_62" node-id="37" r="1" rev="13" spreadMethod="pad"><stop offset="0" stop-color="#fff478"></stop><stop offset="0.474827" stop-color="#ffb02e"></stop><stop offset="1" stop-color="#f70a8d"></stop></radialGradient><radialGradient cx="0" cy="0" fx="0" fy="0" gradientUnits="objectBoundingBox" id="paint1_radial_31_62" node-id="41" r="1" rev="12" spreadMethod="pad"><stop offset="0" stop-color="#fff478"></stop><stop offset="0.474827" stop-color="#ffb02e"></stop><stop offset="1" stop-color="#f70a8d"></stop></radialGradient><radialGradient cx="0" cy="0" fx="0" fy="0" gradientUnits="objectBoundingBox" id="paint2_radial_31_62" node-id="45" r="1" rev="11" spreadMethod="pad"><stop offset="0.787821" stop-color="#f59639" stop-opacity="0"></stop><stop offset="0.972509" stop-color="#ff7dce"></stop></radialGradient><radialGradient cx="0" cy="0" fx="0" fy="0" gradientUnits="objectBoundingBox" id="paint3_radial_31_62" node-id="48" r="1" rev="10" spreadMethod="pad"><stop offset="0.314853" stop-color="#000000" stop-opacity="0"></stop><stop offset="1" stop-color="#000000"></stop></radialGradient><radialGradient cx="0" cy="0" fx="0" fy="0" gradientUnits="objectBoundingBox" id="paint4_radial_31_62" node-id="51" r="1" rev="9" spreadMethod="pad"><stop offset="0.507903" stop-color="#7d6133" stop-opacity="0"></stop><stop offset="1" stop-color="#715b32"></stop></radialGradient><radialGradient cx="0" cy="0" fx="0" fy="0" gradientUnits="objectBoundingBox" id="paint5_radial_31_62" node-id="54" r="1" rev="8" spreadMethod="pad"><stop offset="0" stop-color="#ffb849"></stop><stop offset="1" stop-color="#ffb847" stop-opacity="0"></stop></radialGradient><radialGradient cx="0" cy="0" fx="0" fy="0" gradientUnits="objectBoundingBox" id="paint6_radial_31_62" node-id="57" r="1" rev="7" spreadMethod="pad"><stop offset="0" stop-color="#ffa64b"></stop><stop offset="0.900412" stop-color="#ffae46" stop-opacity="0"></stop></radialGradient><radialGradient cx="0" cy="0" fx="0" fy="0" gradientUnits="objectBoundingBox" id="paint7_radial_31_62" node-id="60" r="1" rev="6" spreadMethod="pad"><stop offset="0.185425" stop-color="#000000" stop-opacity="0"></stop><stop offset="1" stop-color="#000000" stop-opacity="0.4"></stop></radialGradient><radialGradient cx="0" cy="0" fx="0" fy="0" gradientUnits="objectBoundingBox" id="paint8_radial_31_62" node-id="63" r="1" rev="5" spreadMethod="pad"><stop offset="0.0661917" stop-color="#ffea67"></stop><stop offset="0.593499" stop-color="#ffc13f"></stop><stop offset="0.904482" stop-color="#df9030"></stop></radialGradient><radialGradient cx="0" cy="0" fx="0" fy="0" gradientUnits="objectBoundingBox" id="paint9_radial_31_62" node-id="67" r="1" rev="4" spreadMethod="pad"><stop offset="0" stop-color="#392108"></stop><stop offset="1" stop-color="#c87928" stop-opacity="0"></stop></radialGradient><radialGradient cx="0" cy="0" fx="0" fy="0" gradientUnits="objectBoundingBox" id="paint10_radial_31_62" node-id="70" r="1" rev="3" spreadMethod="pad"><stop offset="0" stop-color="#392108"></stop><stop offset="1" stop-color="#c87928" stop-opacity="0"></stop></radialGradient><radialGradient cx="0" cy="0" fx="0" fy="0" gradientUnits="objectBoundingBox" id="paint12_radial_31_62" node-id="76" r="1" rev="2" spreadMethod="pad"><stop offset="0.0661917" stop-color="#ffea67"></stop><stop offset="0.593499" stop-color="#ffc13f"></stop><stop offset="0.904482" stop-color="#df9030"></stop></radialGradient><radialGradient cx="0" cy="0" fx="0" fy="0" gradientUnits="objectBoundingBox" id="paint13_radial_31_62" node-id="80" r="1" rev="1" spreadMethod="pad"><stop offset="0.499571" stop-color="#ffea67" stop-opacity="0"></stop><stop offset="0.851196" stop-color="#f9708e"></stop></radialGradient><filter filterUnits="objectBoundingBox" height="14.688099" id="filter0_f_31_62" node-id="29" width="14.5325" x="2.46753" y="16"><feFlood color-interpolation-filters="sRGB" flood-color="#000000" flood-opacity="0" result="BackgroundImageFix"></feFlood><feBlend color-interpolation-filters="sRGB" in="SourceGraphic" in2="BackgroundImageFix" mode="normal" result="shape"></feBlend><feGaussianBlur color-interpolation-filters="sRGB" in="shape" result="effect1_foregroundBlur_31_62" stdDeviation="1 1"></feGaussianBlur></filter><filter filterUnits="objectBoundingBox" height="4" id="filter1_f_31_62" node-id="33" width="10" x="8.5" y="21.5"><feFlood color-interpolation-filters="sRGB" flood-color="#000000" flood-opacity="0" result="BackgroundImageFix"></feFlood><feBlend color-interpolation-filters="sRGB" in="SourceGraphic" in2="BackgroundImageFix" mode="normal" result="shape"></feBlend><feGaussianBlur color-interpolation-filters="sRGB" in="shape" result="effect1_foregroundBlur_31_62" stdDeviation="0.75 0.75"></feGaussianBlur></filter></defs><path d="M 16.00 30.00 C 25.33 30.00 30.00 23.73 30.00 16.00 C 30.00 8.27 25.33 2.00 16.00 2.00 C 6.66 2.00 2.00 8.27 2.00 16.00 C 2.00 23.73 6.66 30.00 16.00 30.00 Z" fill="url(#paint0_radial_31_62)" fill-rule="nonzero" node-id="222" stroke="none" target-height="27.9978" target-width="27.9978" target-x="2" target-y="2"></path><path d="M 16.00 30.00 C 25.33 30.00 30.00 23.73 30.00 16.00 C 30.00 8.27 25.33 2.00 16.00 2.00 C 6.66 2.00 2.00 8.27 2.00 16.00 C 2.00 23.73 6.66 30.00 16.00 30.00 Z" fill="url(#paint1_radial_31_62)" fill-rule="nonzero" node-id="224" stroke="none" target-height="27.9978" target-width="27.9978" target-x="2" target-y="2"></path><path d="M 16.00 30.00 C 25.33 30.00 30.00 23.73 30.00 16.00 C 30.00 8.27 25.33 2.00 16.00 2.00 C 6.66 2.00 2.00 8.27 2.00 16.00 C 2.00 23.73 6.66 30.00 16.00 30.00 Z" fill="url(#paint2_radial_31_62)" fill-rule="nonzero" node-id="226" stroke="none" target-height="27.9978" target-width="27.9978" target-x="2" target-y="2"></path><path d="M 16.00 30.00 C 25.33 30.00 30.00 23.73 30.00 16.00 C 30.00 8.27 25.33 2.00 16.00 2.00 C 6.66 2.00 2.00 8.27 2.00 16.00 C 2.00 23.73 6.66 30.00 16.00 30.00 Z" fill="url(#paint3_radial_31_62)" fill-opacity="0.6" fill-rule="nonzero" node-id="228" stroke="none" target-height="27.9978" target-width="27.9978" target-x="2" target-y="2"></path><path d="M 16.00 30.00 C 25.33 30.00 30.00 23.73 30.00 16.00 C 30.00 8.27 25.33 2.00 16.00 2.00 C 6.66 2.00 2.00 8.27 2.00 16.00 C 2.00 23.73 6.66 30.00 16.00 30.00 Z" fill="url(#paint4_radial_31_62)" fill-rule="nonzero" node-id="230" stroke="none" target-height="27.9978" target-width="27.9978" target-x="2" target-y="2"></path><path d="M 16.00 30.00 C 25.33 30.00 30.00 23.73 30.00 16.00 C 30.00 8.27 25.33 2.00 16.00 2.00 C 6.66 2.00 2.00 8.27 2.00 16.00 C 2.00 23.73 6.66 30.00 16.00 30.00 Z" fill="url(#paint5_radial_31_62)" fill-rule="nonzero" node-id="232" stroke="none" target-height="27.9978" target-width="27.9978" target-x="2" target-y="2"></path><path d="M 16.00 30.00 C 25.33 30.00 30.00 23.73 30.00 16.00 C 30.00 8.27 25.33 2.00 16.00 2.00 C 6.66 2.00 2.00 8.27 2.00 16.00 C 2.00 23.73 6.66 30.00 16.00 30.00 Z" fill="url(#paint6_radial_31_62)" fill-rule="nonzero" node-id="234" stroke="none" target-height="27.9978" target-width="27.9978" target-x="2" target-y="2"></path><path d="M 16.00 30.00 C 25.33 30.00 30.00 23.73 30.00 16.00 C 30.00 8.27 25.33 2.00 16.00 2.00 C 6.66 2.00 2.00 8.27 2.00 16.00 C 2.00 23.73 6.66 30.00 16.00 30.00 Z" fill="url(#paint7_radial_31_62)" fill-rule="nonzero" node-id="236" stroke="none" target-height="27.9978" target-width="27.9978" target-x="2" target-y="2"></path><path d="M 10.00 21.50 L 10.00 18.44 C 10.00 17.64 9.36 17.00 8.56 17.00 C 7.72 17.00 7.06 17.72 7.04 18.56 C 7.02 19.92 6.84 21.72 6.00 22.00 C 3.00 23.00 2.00 27.50 4.50 29.50 C 6.50 31.10 8.50 31.00 10.00 31.00 L 12.76 31.00 C 13.45 31.00 14.00 30.45 14.00 29.76 C 14.00 29.30 13.74 28.87 13.32 28.66 L 13.00 28.50 L 13.72 28.50 C 14.18 28.50 14.58 28.19 14.69 27.74 L 14.76 27.47 C 14.88 26.98 14.51 26.50 14.00 26.50 L 14.33 26.34 C 14.74 26.13 15.00 25.71 15.00 25.25 C 15.00 24.79 14.74 24.37 14.33 24.16 L 14.00 24.00 L 15.75 24.00 C 16.44 24.00 17.00 23.44 17.00 22.75 C 17.00 22.06 16.44 21.50 15.75 21.50 L 10.00 21.50 Z" fill="url(#paint8_radial_31_62)" fill-rule="nonzero" node-id="238" stroke="none" target-height="14.100098" target-width="14.999911" target-x="1.9999899" target-y="17"></path><path d="M 13.00 19.00 C 13.00 19.00 14.12 17.70 16.25 18.00 C 18.38 18.30 19.00 20.00 19.00 20.00" fill="none" node-id="240" stroke="#402a32" stroke-linecap="round" stroke-width="2" target-height="2.3029003" target-width="6" target-x="13" target-y="17.6971"></path><path d="M 13.69 13.42 C 13.69 16.00 11.60 18.09 9.02 18.09 C 6.44 18.09 4.34 16.00 4.34 13.42 C 4.34 10.84 6.44 8.75 9.02 8.75 C 11.60 8.75 13.69 10.84 13.69 13.42 Z" fill="url(#paint9_radial_31_62)" fill-rule="nonzero" node-id="242" stroke="none" target-height="9.3466" target-width="9.346601" target-x="4.34375" target-y="8.7472"></path><path d="M 23.49 13.94 C 23.49 16.29 21.59 18.19 19.24 18.19 C 16.90 18.19 15.00 16.29 15.00 13.94 C 15.00 11.60 16.90 9.70 19.24 9.70 C 21.59 9.70 23.49 11.60 23.49 13.94 Z" fill="url(#paint10_radial_31_62)" fill-rule="nonzero" node-id="244" stroke="none" target-height="8.488619" target-width="8.48862" target-x="14.999991" target-y="9.698891"></path><path d="M 10.42 16.22 C 12.74 16.22 14.63 14.34 14.63 12.02 C 14.63 9.70 12.74 7.81 10.42 7.81 C 8.10 7.81 6.21 9.70 6.21 12.02 C 6.21 14.34 8.10 16.22 10.42 16.22 Z" fill="#ffffff" fill-rule="nonzero" node-id="246" stroke="none" target-height="8.4119" target-width="8.411968" target-x="6.2131305" target-y="7.8125"></path><path d="M 21.57 16.30 C 23.91 16.30 25.81 14.40 25.81 12.06 C 25.81 9.71 23.91 7.81 21.57 7.81 C 19.22 7.81 17.32 9.71 17.32 12.06 C 17.32 14.40 19.22 16.30 21.57 16.30 Z" fill="#ffffff" fill-rule="nonzero" node-id="248" stroke="none" target-height="8.4886" target-width="8.488602" target-x="17.324" target-y="7.8125"></path><path d="M 13.00 11.50 C 13.00 13.16 11.66 14.50 10.00 14.50 C 8.34 14.50 7.00 13.16 7.00 11.50 C 7.00 9.84 8.34 8.50 10.00 8.50 C 11.66 8.50 13.00 9.84 13.00 11.50 Z M 24.00 11.50 C 24.00 13.16 22.66 14.50 21.00 14.50 C 19.34 14.50 18.00 13.16 18.00 11.50 C 18.00 9.84 19.34 8.50 21.00 8.50 C 22.66 8.50 24.00 9.84 24.00 11.50 Z" fill="url(#paint11_linear_31_62)" fill-rule="evenodd" node-id="250" stroke="none" target-height="6" target-width="17" target-x="7" target-y="8.5"></path><g node-id="276"><path d="M 12.70 28.69 L 12.76 28.47 C 12.88 27.98 12.51 27.50 12.00 27.50 L 12.33 27.34 C 12.74 27.13 13.00 26.71 13.00 26.25 C 13.00 25.79 12.74 25.37 12.33 25.16 L 12.00 25.00 L 13.75 25.00 C 14.44 25.00 15.00 24.44 15.00 23.75 C 15.00 23.06 14.44 22.50 13.75 22.50 L 8.00 22.50 L 8.00 19.44 C 8.00 18.64 7.36 18.00 6.56 18.00 C 5.72 18.00 5.06 18.72 5.04 19.56 C 5.03 20.62 4.91 21.94 4.47 22.61 C 6.00 25.65 8.75 27.90 12.70 28.69 Z" fill="#e4694e" fill-rule="evenodd" filter="url(#filter0_f_31_62)" group-id="1" node-id="254" stroke="none" target-height="10.688099" target-width="10.532471" target-x="4.46753" target-y="18"></path></g><path d="M 10.00 21.50 L 10.00 18.44 C 10.00 17.64 9.36 17.00 8.56 17.00 C 7.72 17.00 7.06 17.72 7.04 18.56 C 7.02 19.92 6.84 21.72 6.00 22.00 C 3.00 23.00 2.00 27.50 4.50 29.50 C 6.50 31.10 8.50 31.00 10.00 31.00 L 12.76 31.00 C 13.45 31.00 14.00 30.45 14.00 29.76 C 14.00 29.30 13.74 28.87 13.32 28.66 L 13.00 28.50 L 13.72 28.50 C 14.18 28.50 14.58 28.19 14.69 27.74 L 14.76 27.47 C 14.88 26.98 14.51 26.50 14.00 26.50 L 14.33 26.34 C 14.74 26.13 15.00 25.71 15.00 25.25 C 15.00 24.79 14.74 24.37 14.33 24.16 L 14.00 24.00 L 15.75 24.00 C 16.44 24.00 17.00 23.44 17.00 22.75 C 17.00 22.06 16.44 21.50 15.75 21.50 L 10.00 21.50 Z" fill="url(#paint12_radial_31_62)" fill-rule="nonzero" node-id="257" stroke="none" target-height="14.100098" target-width="14.999911" target-x="1.9999899" target-y="17"></path><path d="M 10.00 21.50 L 10.00 18.44 C 10.00 17.64 9.36 17.00 8.56 17.00 C 7.72 17.00 7.06 17.72 7.04 18.56 C 7.02 19.92 6.84 21.72 6.00 22.00 C 3.00 23.00 2.00 27.50 4.50 29.50 C 6.50 31.10 8.50 31.00 10.00 31.00 L 12.76 31.00 C 13.45 31.00 14.00 30.45 14.00 29.76 C 14.00 29.30 13.74 28.87 13.32 28.66 L 13.00 28.50 L 13.72 28.50 C 14.18 28.50 14.58 28.19 14.69 27.74 L 14.76 27.47 C 14.88 26.98 14.51 26.50 14.00 26.50 L 14.33 26.34 C 14.74 26.13 15.00 25.71 15.00 25.25 C 15.00 24.79 14.74 24.37 14.33 24.16 L 14.00 24.00 L 15.75 24.00 C 16.44 24.00 17.00 23.44 17.00 22.75 C 17.00 22.06 16.44 21.50 15.75 21.50 L 10.00 21.50 Z" fill="url(#paint13_radial_31_62)" fill-rule="nonzero" node-id="259" stroke="none" target-height="14.100098" target-width="14.999911" target-x="1.9999899" target-y="17"></path><path d="M 12.50 4.50 C 12.17 4.17 11.20 3.50 10.00 3.50 C 8.80 3.50 7.83 4.17 7.50 4.50" fill="none" node-id="261" stroke="#402a32" stroke-linecap="round" stroke-width="1" target-height="1" target-width="5" target-x="7.5" target-y="3.5"></path><path d="M 18.50 8.50 C 18.50 8.50 19.50 7.50 21.50 7.50 C 23.50 7.50 24.50 8.50 24.50 8.50" fill="none" node-id="263" stroke="#402a32" stroke-linecap="round" stroke-width="1" target-height="1" target-width="5.999998" target-x="18.5" target-y="7.5"></path><g node-id="277"><path d="M 10.00 23.00 L 17.00 23.00 L 17.00 24.00 L 10.00 24.00 Z" fill="#ffa048" fill-opacity="0.8" fill-rule="nonzero" filter="url(#filter1_f_31_62)" group-id="2" node-id="267" stroke="none" target-height="1" target-width="7" target-x="10" target-y="23"></path></g><path d="M 11.00 24.00 L 14.00 24.00 C 14.55 24.00 15.00 24.45 15.00 25.00 L 11.00 24.00 Z" fill="url(#paint14_linear_31_62)" fill-rule="nonzero" node-id="270" stroke="none" target-height="1" target-width="4" target-x="11" target-y="24"></path><path d="M 11.00 28.50 L 13.00 28.50 C 13.55 28.50 14.00 28.95 14.00 29.50 L 11.00 28.50 Z" fill="url(#paint15_linear_31_62)" fill-rule="nonzero" node-id="272" stroke="none" target-height="1.0000038" target-width="3" target-x="11" target-y="28.499998"></path><path d="M 11.00 26.50 L 14.00 26.50 C 14.55 26.50 15.00 26.95 15.00 27.50 L 11.00 26.50 Z" fill="url(#paint16_linear_31_62)" fill-rule="nonzero" node-id="274" stroke="none" target-height="1.0000038" target-width="4" target-x="11" target-y="26.499998"></path></svg>